<?xml version="1.0" encoding="iso-8859-1"?>
<!-- Generator: Adobe Illustrator 19.0.0, SVG Export Plug-In . SVG Version: 6.00 Build 0)  -->
<svg version="1.1" id="Capa_1" xmlns="http://www.w3.org/2000/svg" xmlns:xlink="http://www.w3.org/1999/xlink" x="0px" y="0px"
	 viewBox="0 0 368 368" style="enable-background:new 0 0 368 368;" xml:space="preserve">
<path style="fill:#CCE4FF;" d="M360,280v32c0,8.8-7.2,16-16,16H24c-8.8,0-16-7.2-16-16v-32V104c0-8.8,7.2-16,16-16h80V72
	c0-17.68,14.32-32,32-32h96c17.68,0,32,14.32,32,32v16h80c8.8,0,16,7.2,16,16v32h-64v48h64V280z M256,208c0-39.76-32.24-72-72-72
	s-72,32.24-72,72s32.24,72,72,72S256,247.76,256,208z"/>
<g>
	<path style="fill:#007AFF;" d="M344,80h-72v-8c0-22.056-17.944-40-40-40h-96c-22.056,0-40,17.944-40,40v8H24
		C10.768,80,0,90.768,0,104v208c0,13.232,10.768,24,24,24h320c13.232,0,24-10.768,24-24V104C368,90.768,357.232,80,344,80z M352,176
		h-48v-32h48V176z M344,320H24c-4.408,0-8-3.592-8-8v-24h72c4.416,0,8-3.584,8-8s-3.584-8-8-8H16V104c0-4.408,3.592-8,8-8h80
		c4.416,0,8-3.584,8-8V72c0-13.232,10.768-24,24-24h96c13.232,0,24,10.768,24,24v16c0,4.416,3.576,8,8,8h80c4.416,0,8,3.592,8,8v24
		h-56c-4.424,0-8,3.584-8,8v48c0,4.416,3.576,8,8,8h56v80h-72c-4.424,0-8,3.584-8,8s3.576,8,8,8h72v24
		C352,316.408,348.416,320,344,320z"/>
	<path style="fill:#007AFF;" d="M152,96h64c4.424,0,8-3.584,8-8s-3.576-8-8-8h-64c-4.416,0-8,3.584-8,8S147.584,96,152,96z"/>
	<path style="fill:#007AFF;" d="M184,128c-44.112,0-80,35.888-80,80s35.888,80,80,80s80-35.888,80-80S228.112,128,184,128z M184,272
		c-35.288,0-64-28.712-64-64s28.712-64,64-64s64,28.712,64,64S219.288,272,184,272z"/>
	<path style="fill:#007AFF;" d="M184,184c-13.232,0-24,10.768-24,24s10.768,24,24,24s24-10.768,24-24S197.232,184,184,184z M184,216
		c-4.408,0-8-3.592-8-8s3.592-8,8-8c4.408,0,8,3.592,8,8S188.408,216,184,216z"/>
</g>
<g>
</g>
<g>
</g>
<g>
</g>
<g>
</g>
<g>
</g>
<g>
</g>
<g>
</g>
<g>
</g>
<g>
</g>
<g>
</g>
<g>
</g>
<g>
</g>
<g>
</g>
<g>
</g>
<g>
</g>
</svg>
